<?xml version="1.0" encoding="UTF-8" standalone="no"?>
<svg id="svg4136" xmlns:rdf="http://www.w3.org/1999/02/22-rdf-syntax-ns#" xmlns="http://www.w3.org/2000/svg" height="528.74" viewBox="0 0 556.94214 528.73633" width="556.94" version="1.1" xmlns:cc="http://creativecommons.org/ns#" xmlns:dc="http://purl.org/dc/elements/1.1/">
<path id="path4146" stroke-linejoin="round" d="m542.8 6.5546c-6.4794 2.8019-16.811 10.509-31.9 23.011-58.548 48.509-81.136 65.385-133.09 99.444-54.783 35.911-70.835 45.285-162.75 95.019-36.316 19.65-37.845 21.327-25.168 27.602 6.4122 3.1739 36.098 22.15 48.78 31.181 13.184 9.3893 12.072 13.208-5.3607 18.43-14.721 4.4096-13.657 4.7399-24.796-7.6773-12.257-13.664-38.406-18.274-48.278-8.51-5.3631 5.3046-3.2482 7.4632 41.274 42.081 9.083 7.0838 12.083 6.7676 15.416 16.958 6.6843 20.443 2.9746 30.821-18.34 51.32-11.237 10.807-38.69 12.279-52.177 2.7947-17.697-12.444-57.03-35.097-61.842-35.615-7.3548-0.7919-11.599 3.0421-67.898 61.346-11.648 12.063-13.364 15.851-9.5485 21.084 2.0174 2.7666 42.736 15.188 129.72 39.576 17.844 5.0029 33.066 9.4351 33.826 9.8496 7.5584 4.1186 86.974 25.608 103.61 28.035 11.952 1.7443 15.127 1.1536 16.676-3.1068 1.835-5.0466 1.1595-6.0937-19.037-29.454-36.486-42.202-36.584-45.971-2.429-93.091 24.475-33.766 25.322-35.583 24.846-53.215-0.35769-13.271 1.747-17.807 13.269-28.615 8.7467-8.2049 11.11-18.582 6.7287-29.54-6.8311-17.085 2.8712-41.59 19.56-49.401 8.9845-5.2931 19.696-2.4841 29.708-2.0631 12.766 0.53748 23.704 0.77401 24.305 0.52322 4.3814-1.8231 14.247-19.336 19.177-34.043 6.649-19.834 16.186-25.016 29.598-16.08 7.7744 5.1798 11.376 6.4067 14.777 5.032 4.6576-1.8827 57.404-39.077 59.708-42.103 1.424-1.8706 30.468-93.047 36.128-113.41 6.4126-23.076 6.3144-32.03-4.4846-27.36z" stroke="#000" stroke-width="10.6" fill="none"/>
</svg>
