<?xml version="1.0" encoding="UTF-8" standalone="no"?>
<svg id="svg4182" xmlns:rdf="http://www.w3.org/1999/02/22-rdf-syntax-ns#" xmlns="http://www.w3.org/2000/svg" height="369.74" viewBox="0 0 236.78346 369.7427" width="236.78" version="1.1" xmlns:cc="http://creativecommons.org/ns#" xmlns:dc="http://purl.org/dc/elements/1.1/">
<path id="path4192" d="m115.55 3.2011c-21.623 0.1455-61.465 15.194-75.52 29.486-14.394 14.637-36.83 95.503-36.83 132.75 0 10.019 13.414 70.116 21.922 98.211 1.0826 3.575 6.771 24.725 12.641 47 12.319 46.75 15.103 53.181 23.938 55.291 6.6785 1.5949 8.786 0.61431 16.568-7.7051 10.114-10.812 12.866-11.418 23.293-5.1309 28.646 17.272 68.787 2.2925 77.59-28.955 38.99-138.41 57.16-211.4 54.1-217.39-5.4-10.598-42.21-17.782-62.11-12.125-11.25 3.196-14.98 7.655-69.6 83.245-21.921 30.33-21.917 30.33-39.043 29.58-20.831-0.91-27.446-8.17-31.717-34.8-5.047-31.48-2.031-38.29 12.57-28.37 13.4 9.1001 21.659 9.5851 28.977 1.6992 9.1884-9.902 7.1776-15.864-12.088-35.832-15.614-16.187-24.939-40.431-18.351-47.711 3.9257-4.3378 8.4599-1.6946 19.979 11.643 22.376 25.909 37.664 30.74 57.035 18.023 11.142-7.3148 46.242-62.898 43.508-68.898-2.93-6.43-24.08-16.568-40.79-19.555-1.8-0.321-3.84-0.466-6.07-0.4509z" stroke="#000" stroke-width="6.4" fill="none"/>
</svg>
