<?xml version="1.0" encoding="UTF-8" standalone="no"?>
<svg id="svg4747" xmlns:rdf="http://www.w3.org/1999/02/22-rdf-syntax-ns#" xmlns="http://www.w3.org/2000/svg" height="499.5" viewBox="0 0 439.41938 499.4953" width="439.42" version="1.1" xmlns:cc="http://creativecommons.org/ns#" xmlns:dc="http://purl.org/dc/elements/1.1/">
<path id="path4757" stroke-linejoin="round" d="m431.61 6.6182c-3.3477-4.0298-8.3958-2.341-41.441 9.8359-18.537 6.8309-39.522 14.534-46.634 17.116-7.1116 2.5826-13.552 5.0006-14.311 5.3739-0.75942 0.37338-21.89 8.2536-46.957 17.512-25.067 9.2579-62.517 23.092-83.223 30.742-20.706 7.6502-48.358 18.562-61.451 24.248-13.092 5.686-41.603 16.913-63.357 24.949-38.402 14.186-45.609 17.506-45.246 20.839 0.08851 0.81344 2.6604 4.3766 5.7142 7.9192 6.9717 8.0874 7.9848 11.134 5.0395 15.148-1.2214 1.6647-5.0006 6.7421-8.3986 11.284-19.024 25.427-25.312 40.312-26.306 62.281-0.93897 20.75-0.02187 110.59 1.2621 123.6 2.1666 21.963 3.0438 26.465 13.644 70.052 5.738 23.595 10.863 42.438 11.915 43.806 2.1716 2.8235 6.5319 4.3237 8.3297 2.8654 3.1293-2.5383 13.696-6.7883 15.911-6.3999 1.3467 0.2362 3.926 1.7796 5.7325 3.4305 2.0346 1.8595 4.5342 3.0918 6.5688 3.24 3.274 0.23845 3.3364 0.19418 19.903-14.184 15.838-13.746 16.628-14.566 16.839-17.468 0.4085-5.6089-1.4735-8.2319-14.155-19.727-20.688-18.752-52.986-48.829-54.687-50.927-2.4108-2.9722-3.8486-11.029-5.5777-31.265-1.2039-14.09-1.162-18.968 0.19135-22.233 1.9318-4.6602 17.809-25.225 22.204-28.759 1.5517-1.2483 3.5471-2.3552 4.4332-2.4592 1.0647-0.12495 5.2707 3.3344 12.403 10.2 12.627 12.155 16.401 14.979 19.278 14.426 2.4039-0.46254 26.683-21.342 28.631-24.621 1.7699-2.9798-0.14855-10.06-4.881-18.013-3.9813-6.691-5.4372-8.184-31.765-32.549-28.74-26.597-28.893-26.77-28.038-32.282 0.68926-4.4478 19.548-51.7 21.972-55.052 1.4532-2.0099 3.951-4.147 6.4612-5.5275 3.4946-1.9219 4.6021-2.0059 7.5817-0.57428 2.1302 1.0235 16.013 13.334 35.645 31.605 77.013 71.677 95.226 88.463 97.895 90.222 4.1039 2.7043 11.606 2.5116 15.183-0.38976 3.1204-2.531 37.322-46.725 43.104-55.697 5.5106-8.5514 5.4379-11.111-0.78195-27.56-2.9716-7.8583-5.9137-16.604-6.5392-19.434-2.3841-10.786 0.12005-23.821 6.5801-34.243 5.1419-8.295 10.915-12.391 27.932-19.822 24.28-10.603 36.497-19.201 54.123-38.088 5.2939-5.6728 10.884-11.62 12.422-13.216 25.575-26.551 24.555-24.949 21.171-33.26-1.4859-3.6501-2.5296-7.4967-2.3204-8.547 0.48007-2.4105 1.8869-3.0654 20.674-9.6272 20.249-7.0722 23.08-9.5947 18.738-16.705-0.48551-0.79518-0.92968-1.4887-1.4079-2.0644z" stroke="#000" stroke-width="9.3" fill="none"/>
</svg>
