<svg xmlns="http://www.w3.org/2000/svg" width="484" height="640" fill="none"><path fill="url(#a)" d="M383.096 4.441 297.898 243.9c10.014-2.801 19.916-4.719 29.707-5.75 11.4-1.5 21.6-2.249 30.6-2.249 22.2 0 41.7 4.2 58.5 12.6 16.8 8.1 30.3 20.1 40.5 36 10.5 15.9 16.8 35.1 18.9 57.6h-78.75c-.9-6.6-3.6-12.15-8.1-16.65-4.5-4.8-10.35-8.401-17.55-10.801-6.9-2.7-15-4.049-24.3-4.049-5.4 0-10.5.45-15.3 1.35-4.8.9-9 2.25-12.6 4.05-3.3 1.8-6 4.05-8.1 6.75-2.1 2.7-3.15 5.85-3.15 9.45 0 4.8 1.8 8.85 5.4 12.15 3.9 3.3 9.45 6.149 16.65 8.549 7.5 2.4 16.65 4.951 27.45 7.651 5.1 1.2 10.05 2.4 14.85 3.6 4.8.9 9.6 1.95 14.4 3.15 13.2 3 25.5 6.45 36.9 10.35 11.7 3.9 21.9 9 30.6 15.3 9 6.3 16.05 14.85 21.15 25.65 5.1 10.5 7.65 24 7.65 40.5 0 18.9-3.6 34.95-10.8 48.15-7.2 12.9-16.95 23.4-29.25 31.5-12.3 8.1-26.1 14.1-41.4 18-15.3 3.6-30.9 5.4-46.8 5.4-23.4 0-45.15-3.9-65.25-11.7-19.8-7.8-36.15-19.95-49.05-36.45-10.421-13.646-17.455-30.37-21.105-50.172l-62.329 175.187-11.305-4.023L211.479 451H114.3L0 132.4h88.65l78.75 250.2L243 132.4h81.832L371.79.419l11.306 4.022ZM224.215 451h75.49c2.1 8.4 6 15.3 11.7 20.7 5.7 5.1 12.75 8.85 21.15 11.25 8.7 2.4 18 3.6 27.9 3.6 6 0 12.15-.6 18.45-1.8 6.3-1.2 11.55-3.45 15.75-6.75 4.5-3.3 6.75-8.1 6.75-14.4 0-4.5-1.35-8.1-4.05-10.8-2.4-3-6-5.4-10.8-7.2-4.5-2.1-10.2-3.9-17.1-5.4-2.7-.6-5.55-1.2-8.55-1.8l-8.1-1.8c-2.7-.6-5.55-1.2-8.55-1.8-15.3-3.3-30-7.05-44.1-11.25-14.1-4.5-26.55-10.35-37.35-17.55a75.163 75.163 0 0 1-17.034-15.587L224.215 451Z"/><defs><linearGradient id="a" x1="376.669" x2="152.442" y1="2.157" y2="637.276" gradientUnits="userSpaceOnUse"><stop stop-color="#fff" stop-opacity="0"/><stop offset=".212" stop-color="#fff"/><stop offset=".721" stop-color="#fff"/><stop offset="1" stop-color="#fff" stop-opacity="0"/></linearGradient></defs></svg>